{
    "asset": {
        "copyright": "2020 (c) Adobe Inc.",
        "generator": "Adobe Dimension - 611127eacd250f22943d21b3c2c9dbaa3a0ef9a2",
        "version": "2.0",
        "extensions": {
            "KHR_xmp": {
                "packet": 0
            }
        }
    },
    "accessors": [
        {
            "bufferView": 0,
            "componentType": 5126,
            "count": 4,
            "type": "VEC3",
            "max": [
                0.09999999403953552,
                0.0,
                0.09999999403953552
            ],
            "min": [
                -0.09999999403953552,
                0.0,
                -0.09999999403953552
            ]
        },
        {
            "bufferView": 1,
            "componentType": 5126,
            "count": 4,
            "type": "VEC3"
        },
        {
            "bufferView": 2,
            "componentType": 5126,
            "count": 4,
            "type": "VEC2"
        },
        {
            "bufferView": 3,
            "componentType": 5125,
            "count": 6,
            "type": "SCALAR",
            "max": [
                3.0
            ],
            "min": [
                0.0
            ]
        },
        {
            "bufferView": 4,
            "componentType": 5126,
            "count": 36,
            "type": "VEC3",
            "max": [
                0.09999999403953552,
                0.19999998807907105,
                0.09999999403953552
            ],
            "min": [
                -0.09999999403953552,
                0.0,
                -0.09999999403953552
            ]
        },
        {
            "bufferView": 5,
            "componentType": 5126,
            "count": 36,
            "type": "VEC3"
        },
        {
            "bufferView": 6,
            "componentType": 5126,
            "count": 36,
            "type": "VEC2"
        },
        {
            "bufferView": 7,
            "componentType": 5125,
            "count": 36,
            "type": "SCALAR",
            "max": [
                35.0
            ],
            "min": [
                0.0
            ]
        }
    ],
    "bufferViews": [
        {
            "buffer": 0,
            "byteOffset": 0,
            "byteLength": 48,
            "target": 34962
        },
        {
            "buffer": 0,
            "byteOffset": 48,
            "byteLength": 48,
            "target": 34962
        },
        {
            "buffer": 0,
            "byteOffset": 96,
            "byteLength": 32,
            "target": 34962
        },
        {
            "buffer": 0,
            "byteOffset": 128,
            "byteLength": 24,
            "target": 34963
        },
        {
            "buffer": 0,
            "byteOffset": 152,
            "byteLength": 432,
            "target": 34962
        },
        {
            "buffer": 0,
            "byteOffset": 584,
            "byteLength": 432,
            "target": 34962
        },
        {
            "buffer": 0,
            "byteOffset": 1016,
            "byteLength": 288,
            "target": 34962
        },
        {
            "buffer": 0,
            "byteOffset": 1304,
            "byteLength": 144,
            "target": 34963
        }
    ],
    "buffers": [
        {
            "byteLength": 1448,
            "uri": "scene_binary.bin"
        }
    ],
    "cameras": [
        {
            "perspective": {
                "znear": 0.000010000000656873454,
                "yfov": 0.6024156808853149,
                "zfar": 2.0,
                "aspectRatio": 1.3333333730697632
            },
            "type": "perspective",
            "name": "render_camera"
        }
    ],
    "images": [
        {
            "name": "composited_baseColor_opacity",
            "uri": "scene_images\\composited_baseColor_opacity.png",
            "mimeType": "image/png"
        },
        {
            "name": "composited_baseColor_opacity_0",
            "uri": "scene_images\\composited_baseColor_opacity_0.png",
            "mimeType": "image/png"
        },
        {
            "name": "composited_roughness",
            "uri": "scene_images\\composited_roughness.png",
            "mimeType": "image/png"
        }
    ],
    "materials": [
        {
            "pbrMetallicRoughness": {
                "baseColorTexture": {
                    "index": 0
                },
                "metallicFactor": 0.0,
                "roughnessFactor": 0.250980406999588
            },
            "alphaMode": "MASK",
            "name": "Materiale predefinito",
            "doubleSided": true
        },
        {
            "pbrMetallicRoughness": {
                "baseColorTexture": {
                    "index": 1
                },
                "metallicFactor": 0.0,
                "metallicRoughnessTexture": {
                    "index": 2
                }
            },
            "alphaMode": "MASK",
            "name": "Materiale predefinito 2",
            "doubleSided": true
        }
    ],
    "meshes": [
        {
            "primitives": [
                {
                    "attributes": {
                        "NORMAL": 1,
                        "POSITION": 0,
                        "TEXCOORD_0": 2
                    },
                    "indices": 3,
                    "material": 0
                }
            ]
        },
        {
            "primitives": [
                {
                    "attributes": {
                        "POSITION": 4,
                        "NORMAL": 5,
                        "TEXCOORD_0": 6
                    },
                    "indices": 7,
                    "material": 1
                }
            ]
        }
    ],
    "nodes": [
        {
            "translation": [
                -0.29115524888038638,
                0.32565736770629885,
                -0.43760043382644656
            ],
            "rotation": [
                0.06345918774604798,
                0.9333350658416748,
                0.20663177967071534,
                -0.28663894534111025
            ],
            "scale": [
                1.0000001192092896,
                1.0,
                1.0
            ],
            "camera": 0,
            "name": "render_camera_n3d"
        },
        {
            "translation": [
                0.0,
                0.09999998658895493,
                -1.192092735635697e-8
            ],
            "rotation": [
                0.7071067690849304,
                0.0,
                0.0,
                0.7071068286895752
            ],
            "scale": [
                0.6988978981971741,
                0.9999998211860657,
                0.9999998211860657
            ],
            "mesh": 0,
            "name": "Piano"
        },
        {
            "translation": [
                -0.00037302012788131833,
                0.09999997168779373,
                -0.0007126044947654009
            ],
            "rotation": [
                0.7071067094802856,
                0.0,
                0.0,
                0.7071068286895752
            ],
            "scale": [
                0.6924557089805603,
                0.0013642327394336463,
                0.9999997019767761
            ],
            "mesh": 1,
            "name": "Cubo"
        }
    ],
    "samplers": [
        {},
        {},
        {}
    ],
    "scenes": [
        {
            "nodes": [
                0,
                1,
                2
            ],
            "name": "scene"
        }
    ],
    "textures": [
        {
            "name": "composited_baseColor_opacity",
            "sampler": 0,
            "source": 0
        },
        {
            "name": "composited_baseColor_opacity",
            "sampler": 1,
            "source": 1
        },
        {
            "name": "composited_roughness",
            "sampler": 2,
            "source": 2
        }
    ],
    "scene": 0,
    "extensions": {
        "KHR_xmp": {
            "@context": {
                "dc": "http://purl.org/dc/elements/1.1/"
            },
            "packets": [
                {
                    "dc:date": "2020-10-27T16:04:23.02+01:00",
                    "dc:format": "model/gltf+json",
                    "dc:title": "tavolo.dn",
                    "xmp:CreatorTool": "AdobeDCXTest"
                }
            ]
        }
    },
    "extensionsUsed": [
        "KHR_xmp"
    ]
}