{
  "accessors": [
    {
      "bufferView": 2,
      "componentType": 5126,
      "count": 6426,
      "max": [
        0.73573601245880127,
        -11.279965400695801,
        36.382465362548828
      ],
      "min": [
        -12.452627182006836,
        -17.61168098449707,
        1.1811619997024536
      ],
      "type": "VEC3"
    },
    {
      "bufferView": 2,
      "byteOffset": 77112,
      "componentType": 5126,
      "count": 6426,
      "max": [
        0.9983704686164856,
        0.99983257055282593,
        0.99985790252685547
      ],
      "min": [
        -0.99894630908966064,
        -0.99984902143478394,
        -0.99999701976776123
      ],
      "type": "VEC3"
    },
    {
      "bufferView": 3,
      "componentType": 5126,
      "count": 6426,
      "max": [
        0.9990503191947937,
        0.99998193979263306,
        0.99995136260986328,
        1
      ],
      "min": [
        -0.99859011173248291,
        -0.99994385242462158,
        -0.99995154142379761,
        -1
      ],
      "type": "VEC4"
    },
    {
      "bufferView": 1,
      "componentType": 5126,
      "count": 6426,
      "max": [
        0.99649697542190552,
        0.99800097942352295
      ],
      "min": [
        0.00090400001499801874,
        0.00077799998689442873
      ],
      "type": "VEC2"
    },
    {
      "bufferView": 0,
      "componentType": 5125,
      "count": 35022,
      "max": [
        6425
      ],
      "min": [
        0
      ],
      "type": "SCALAR"
    }
  ],
  "asset": {
    "extras": {
      "author": "Jeremy E. Grayson (https://sketchfab.com/JeremyGrayson)",
      "license": "CC-BY-4.0 (http://creativecommons.org/licenses/by/4.0/)",
      "source": "https://sketchfab.com/3d-models/newspaper-84683791c7e74992b8f2baeb52595de6",
      "title": "Newspaper"
    },
    "generator": "Sketchfab-5.47.0",
    "version": "2.0"
  },
  "bufferViews": [
    {
      "buffer": 0,
      "byteLength": 140088,
      "byteOffset": 0,
      "name": "floatBufferViews",
      "target": 34963
    },
    {
      "buffer": 0,
      "byteLength": 51408,
      "byteOffset": 140088,
      "byteStride": 8,
      "name": "floatBufferViews",
      "target": 34962
    },
    {
      "buffer": 0,
      "byteLength": 154224,
      "byteOffset": 191496,
      "byteStride": 12,
      "name": "floatBufferViews",
      "target": 34962
    },
    {
      "buffer": 0,
      "byteLength": 102816,
      "byteOffset": 345720,
      "byteStride": 16,
      "name": "floatBufferViews",
      "target": 34962
    }
  ],
  "buffers": [
    {
      "byteLength": 448536,
      "uri": "scene.bin"
    }
  ],
  "images": [
    {
      "uri": "textures/Material.013_baseColor.jpeg"
    }
  ],
  "materials": [
    {
      "doubleSided": true,
      "name": "Material.013",
      "pbrMetallicRoughness": {
        "baseColorFactor": [
          1,
          1,
          1,
          1
        ],
        "baseColorTexture": {
          "index": 0,
          "texCoord": 0
        },
        "metallicFactor": 0,
        "roughnessFactor": 0.59999999999999998
      }
    }
  ],
  "meshes": [
    {
      "primitives": [
        {
          "attributes": {
            "NORMAL": 1,
            "POSITION": 0,
            "TANGENT": 2,
            "TEXCOORD_0": 3
          },
          "indices": 4,
          "material": 0,
          "mode": 4
        }
      ]
    }
  ],
  "nodes": [
    {
      "children": [
        1
      ],
      "name": "RootNode (gltf orientation matrix)",
      "rotation": [
        -0.70710678118654746,
        -0,
        -0,
        0.70710678118654757
      ]
    },
    {
      "children": [
        2
      ],
      "name": "RootNode (model correction matrix)"
    },
    {
      "children": [
        3
      ],
      "name": "Newspaper.obj.cleaner.materialmerger.gles"
    },
    {
      "mesh": 0,
      "name": ""
    }
  ],
  "samplers": [
    {
      "magFilter": 9729,
      "minFilter": 9987,
      "wrapS": 10497,
      "wrapT": 10497
    }
  ],
  "scene": 0,
  "scenes": [
    {
      "name": "OSG_Scene",
      "nodes": [
        0
      ]
    }
  ],
  "textures": [
    {
      "sampler": 0,
      "source": 0
    }
  ]
}

